<?xml version="1.0"?>
<svg xmlns="http://www.w3.org/2000/svg" viewBox="0 0 30 30" width="30px" height="30px" stroke="whitesmoke">
    <path d="M 6 4 C 4.895 4 4 4.895 4 6 L 4 24 C 4 25.105 4.895 26 6 26 L 24 26 C 25.105 26 26 25.105 26 24 L 26 6 C 26 4.895 25.105 4 24 4 L 6 4 z M 6 6 L 24 6 L 24 12 L 20.740234 12 C 19.475104 10.187917 17.377663 9 15 9 C 12.622337 9 10.524896 10.187917 9.2597656 12 L 6 12 L 6 6 z M 21 8 L 21 10 L 23 10 L 23 8 L 21 8 z M 15 11 C 17.757 11 20 13.243 20 16 C 20 18.757 17.757 21 15 21 C 12.243 21 10 18.757 10 16 C 10 13.243 12.243 11 15 11 z M 15 13 C 14.537 13 14.104891 13.113781 13.712891 13.300781 C 13.889891 13.480781 14 13.727 14 14 C 14 14.552 13.552 15 13 15 C 12.727 15 12.480781 14.889891 12.300781 14.712891 C 12.113781 15.104891 12 15.537 12 16 C 12 17.657 13.343 19 15 19 C 16.657 19 18 17.657 18 16 C 18 14.343 16.657 13 15 13 z"/>
</svg>
